<svg xmlns="http://www.w3.org/2000/svg" xmlns:xlink="http://www.w3.org/1999/xlink" width="500" zoomAndPan="magnify" viewBox="0 0 375 374.999991" height="500" preserveAspectRatio="xMidYMid meet" version="1.0"><defs><g><g id="id1"/></g></defs><path fill="rgb(19.60907%, 81.17981%, 64.709473%)" d="M 187.417969 290.460938 C 159.90625 290.460938 134 279.753906 114.5625 260.273438 C 95.082031 240.832031 84.375 214.929688 84.375 187.417969 C 84.375 159.90625 95.082031 134 114.5625 114.5625 C 134 95.082031 159.90625 84.375 187.417969 84.375 C 214.929688 84.375 240.832031 95.082031 260.273438 114.5625 C 279.753906 134.042969 290.460938 159.90625 290.460938 187.417969 C 290.460938 214.929688 279.753906 240.832031 260.273438 260.273438 C 240.832031 279.753906 214.929688 290.460938 187.417969 290.460938 Z M 187.417969 90.550781 C 161.554688 90.550781 137.214844 100.644531 118.929688 118.929688 C 100.644531 137.214844 90.550781 161.554688 90.550781 187.417969 C 90.550781 213.28125 100.644531 237.621094 118.929688 255.90625 C 137.214844 274.191406 161.554688 284.28125 187.417969 284.28125 C 213.28125 284.28125 237.621094 274.191406 255.90625 255.90625 C 274.191406 237.621094 284.28125 213.28125 284.28125 187.417969 C 284.28125 161.554688 274.191406 137.214844 255.90625 118.929688 C 237.621094 100.644531 213.28125 90.550781 187.417969 90.550781 Z M 187.417969 90.550781 " fill-opacity="1" fill-rule="nonzero"/><g fill="rgb(19.60907%, 81.17981%, 64.709473%)" fill-opacity="1"><g transform="translate(134.317378, 232.499985)"><g><path d="M 17.78125 -109.65625 C 24.257812 -112.34375 30.484375 -113.6875 36.453125 -113.6875 C 41.429688 -113.6875 46.5625 -111.84375 51.84375 -108.15625 C 54.726562 -106.164062 57.96875 -102.28125 61.5625 -96.5 C 63.945312 -92.519531 66.984375 -85.300781 70.671875 -74.84375 L 88.890625 -23.15625 C 93.078125 -11.601562 97.335938 -2.414062 101.671875 4.40625 C 106.003906 11.226562 109.960938 16.359375 113.546875 19.796875 C 117.128906 23.234375 120.863281 25.644531 124.75 27.03125 C 128.632812 28.425781 131.84375 29.125 134.375 29.125 C 136.914062 29.125 139.1875 28.925781 141.1875 28.53125 L 141.328125 30.03125 C 136.546875 31.625 131.863281 32.421875 127.28125 32.421875 C 122.707031 32.421875 118.128906 31.25 113.546875 28.90625 C 108.960938 26.5625 104.679688 23.300781 100.703125 19.125 C 92.128906 10.457031 84.859375 -2.738281 78.890625 -20.46875 L 73.0625 -37.5 L 32.125 -37.5 L 21.8125 -10.90625 C 21.320312 -9.707031 21.078125 -8.507812 21.078125 -7.3125 C 21.078125 -6.125 21.597656 -4.859375 22.640625 -3.515625 C 23.679688 -2.171875 25.300781 -1.5 27.5 -1.5 L 28.6875 -1.5 L 28.6875 0 L -1.34375 0 L -1.34375 -1.5 L 0 -1.5 C 2.394531 -1.5 4.738281 -2.21875 7.03125 -3.65625 C 9.320312 -5.101562 11.210938 -7.269531 12.703125 -10.15625 L 49.75 -98.890625 C 44.375 -106.566406 37.703125 -110.40625 29.734375 -110.40625 C 26.148438 -110.40625 22.316406 -109.65625 18.234375 -108.15625 Z M 33.765625 -41.984375 L 71.5625 -41.984375 L 59.765625 -76.78125 C 57.472656 -83.457031 55.378906 -88.6875 53.484375 -92.46875 Z M 33.765625 -41.984375 "/></g></g></g></svg>