<svg width="773" height="536" viewBox="0 0 773 536" fill="none" xmlns="http://www.w3.org/2000/svg">
<rect width="772.944" height="535.955" fill="black"/>
<path d="M122.651 192.015L155.523 238.968L137.724 238.856L111.75 201.335L93.5314 216.965L93.4244 238.578L79 238.487L79.3537 167L93.7782 167.091L93.6098 201.123L132.064 167.332L151.182 167.452L122.651 192.015Z" fill="white"/>
<path d="M221.776 209.949L239.82 239.499L223.244 239.395L206.416 211.27L178.643 211.095L178.504 239.113L164.08 239.022L164.433 167.535L213.427 167.844C222.196 167.899 228.577 169.667 232.569 173.147C236.594 176.595 238.588 182.068 238.551 189.566C238.496 200.714 232.905 207.346 221.779 209.46L221.776 209.949ZM211.512 199.273C215.326 199.297 218.116 198.549 219.884 197.028C221.685 195.507 222.593 193.1 222.609 189.808C222.626 186.515 221.741 184.098 219.956 182.554C218.203 181.011 215.42 180.227 211.606 180.203L178.797 179.997L178.702 199.067L211.512 199.273Z" fill="white"/>
<path d="M322.271 168.529L288.7 213.45L288.57 239.806L274.096 239.715L274.226 213.555L241.054 168.017L258.412 168.127L281.525 200.887L305.353 168.422L322.271 168.529Z" fill="white"/>
<path d="M377.621 168.877C386.39 168.932 392.787 170.716 396.812 174.23C400.837 177.743 402.83 183.297 402.793 190.893C402.755 198.521 400.706 204.082 396.647 207.577C392.587 211.072 386.173 212.792 377.404 212.737L344.399 212.529L344.263 240.156L329.838 240.065L330.192 168.578L377.621 168.877ZM375.163 201.33C379.237 201.355 382.224 200.559 384.123 198.941C386.054 197.291 387.029 194.689 387.046 191.136C387.064 187.583 386.115 184.985 384.2 183.343C382.317 181.669 379.339 180.819 375.264 180.793L344.557 180.6L344.456 201.137L375.163 201.33Z" fill="white"/>
<path d="M481.673 169.532L481.612 181.853L452.127 181.668L451.834 240.833L437.459 240.743L437.752 181.578L408.267 181.392L408.328 169.07L481.673 169.532Z" fill="white"/>
<path d="M508.857 170.143C513.95 168.61 519.544 167.863 525.64 167.901C531.736 167.939 537.322 168.757 542.4 170.354C547.477 171.95 551.915 174.293 555.714 177.381C559.513 180.437 562.46 184.4 564.555 189.27C566.682 194.108 567.731 199.624 567.7 205.817C567.669 212.011 566.566 217.53 564.391 222.373C562.248 227.184 559.262 231.11 555.433 234.15C551.604 237.158 547.143 239.428 542.05 240.961C536.957 242.493 531.363 243.24 525.267 243.202C519.172 243.164 513.585 242.346 508.508 240.749C503.43 239.153 498.992 236.827 495.193 233.771C491.394 230.683 488.447 226.72 486.352 221.882C484.258 217.012 483.225 211.48 483.256 205.286C483.287 199.092 484.373 193.59 486.516 188.779C488.659 183.935 491.645 180.01 495.474 177.002C499.303 173.962 503.764 171.675 508.857 170.143ZM525.328 230.929C529.24 230.954 532.795 230.454 535.995 229.431C539.228 228.376 542.023 226.829 544.38 224.79C546.769 222.751 548.624 220.106 549.944 216.854C551.264 213.603 551.935 209.891 551.955 205.718C551.983 200.177 550.849 195.459 548.554 191.565C546.291 187.672 543.208 184.8 539.306 182.95C535.403 181.1 530.828 180.158 525.579 180.125C521.668 180.101 518.112 180.616 514.912 181.672C511.712 182.695 508.918 184.242 506.528 186.313C504.17 188.352 502.332 190.997 501.012 194.249C499.692 197.501 499.021 201.213 499.001 205.385C498.973 210.927 500.091 215.644 502.354 219.538C504.616 223.399 507.699 226.254 511.602 228.104C515.504 229.954 520.08 230.896 525.328 230.929Z" fill="white"/>
<path d="M410.393 330.416L400.98 330.357C399.94 338.162 395.086 347.745 380.766 347.655C365.945 347.561 356.486 336.586 356.578 317.86C356.67 299.234 366.238 288.378 381.058 288.472C395.278 288.561 399.439 297.6 400.209 304.014L409.622 304.074C409.372 293.757 400.724 280.884 381.096 280.761C361.068 280.635 347.479 294.769 347.365 317.802C347.251 340.934 360.7 355.239 380.728 355.365C400.455 355.49 410.034 342.331 410.393 330.416Z" fill="white"/>
<path d="M474.062 354.351L483.976 354.414L454.587 282.726L445.875 282.671L415.68 353.983L425.494 354.045L433.908 333.369L465.853 333.57L474.062 354.351ZM449.833 292.31L450.234 292.312C450.234 292.312 456.358 309.576 462.786 325.839L436.95 325.677C443.54 309.395 449.833 292.31 449.833 292.31Z" fill="white"/>
<path d="M553.272 354.85L533.599 323.482C545.621 322.456 552.667 315.29 552.725 303.573C552.786 291.056 544.713 283.294 530.193 283.202L496.846 282.992L496.493 354.493L505.506 354.549L505.659 323.606L523.483 323.718L542.758 354.784L553.272 354.85ZM505.821 290.76L528.953 290.906C538.366 290.965 543.653 295.204 543.612 303.516C543.57 311.928 538.242 316.2 528.828 316.141L505.696 315.995L505.821 290.76Z" fill="white"/>
<path d="M593.401 283.601L566.964 283.434L566.61 354.934L593.047 355.101C613.075 355.227 626.754 343.296 626.871 319.563C626.988 295.93 613.429 283.727 593.401 283.601ZM591.883 347.483L575.661 347.381L575.938 291.202L592.161 291.304C608.183 291.405 617.749 301.079 617.658 319.505C617.567 338.031 607.906 347.584 591.883 347.483Z" fill="white"/>
<path d="M682.619 304.692L691.932 304.751C691.903 290.43 679.824 282.643 664.803 282.549C650.082 282.456 639.13 289.998 639.07 302.115C639.009 314.432 647.302 318.29 656.404 320.45L671.107 324.048C678.408 325.896 684.203 328.737 684.164 336.548C684.123 344.86 676.989 349.722 665.473 349.649C654.758 349.582 646.266 345.422 645.732 332L636.319 331.94C636.236 348.664 647.911 357.049 665.336 357.159C681.558 357.261 693.31 350.225 693.378 336.406C693.449 322.086 684.455 318.223 674.452 315.957L659.948 312.561C653.146 310.916 648.252 308.281 648.283 302.073C648.32 294.662 655.753 290.002 664.666 290.059C673.678 290.115 682.071 294.074 682.619 304.692Z" fill="white"/>
<path d="M251.097 291.172L274.207 311.858L268.935 317.705L251.097 291.172Z" fill="white"/>
<path d="M250.735 336.636L268.911 310.594L274.181 316.654L250.735 336.636Z" fill="white"/>
<path d="M291.968 338.266L268.859 317.58L274.13 311.733L291.968 338.266Z" fill="white"/>
<path d="M293.218 291.699L275.041 317.741L269.771 311.681L293.218 291.699Z" fill="white"/>
<path d="M272.573 304.568L270.447 304.536C270.058 305.744 269.948 306.509 269.114 306.883C268.277 307.257 267.709 306.788 266.675 306.224L265.168 307.881C265.654 309.036 266.07 309.683 265.72 310.614C265.372 311.542 264.681 311.654 263.599 312.068L263.595 314.443C264.67 314.887 265.365 315.02 265.71 315.959C266.056 316.899 265.643 317.526 265.148 318.677L266.648 320.379C267.681 319.846 268.251 319.392 269.088 319.792C269.924 320.192 270.032 320.971 270.413 322.178L272.54 322.21C272.923 321.016 273.036 320.239 273.873 319.864C274.717 319.487 275.298 319.969 276.311 320.523L277.818 318.865C277.331 317.71 276.917 317.063 277.266 316.132C277.614 315.204 278.307 315.091 279.387 314.679L279.391 312.303C278.316 311.859 277.622 311.725 277.274 310.781C276.931 309.848 277.344 309.223 277.839 308.07L276.338 306.368C275.309 306.9 274.735 307.355 273.899 306.955C273.063 306.555 272.953 305.774 272.573 304.568ZM274.125 313.412C274.122 315.036 272.941 316.335 271.487 316.314C270.034 316.292 268.858 314.958 268.861 313.334C268.864 311.71 270.045 310.411 271.499 310.433C272.952 310.454 274.128 311.789 274.125 313.412Z" fill="white"/>
<path d="M222.373 312.624L261.21 307.986L261.189 318.741L222.373 312.624Z" fill="white"/>
<path d="M321.798 314.148L280.917 318.75L280.938 308.009L321.798 314.148Z" fill="white"/>
<path d="M272.18 259.257L276.908 303.058L266.969 302.91L272.18 259.257Z" fill="white"/>
<path d="M271.458 369L266.729 325.2L276.668 325.347L271.458 369Z" fill="white"/>
</svg>